<svg xmlns="http://www.w3.org/2000/svg" width="50" height="50" viewBox="0 0 50 50">
    <g fill="#0079C8" fill-rule="nonzero">
        <path d="M30.5 22c-4.687 0-8.5 3.813-8.5 8.5 0 4.687 3.813 8.5 8.5 8.5 4.687 0 8.5-3.813 8.5-8.5 0-4.687-3.813-8.5-8.5-8.5zm0 15.068a6.576 6.576 0 0 1-6.568-6.568 6.576 6.576 0 0 1 6.568-6.568 6.576 6.576 0 0 1 6.568 6.568 6.576 6.576 0 0 1-6.568 6.568z"/>
        <path d="M49.031 44.347l-7.75-7.75a12.618 12.618 0 0 0 1.69-6.324c0-3.395-1.34-6.483-3.52-8.763V10.546h-.002a.975.975 0 0 0-.283-.69l-9.57-9.57a.974.974 0 0 0-.69-.283V0H2.93A2.933 2.933 0 0 0 0 2.93v44.14A2.933 2.933 0 0 0 2.93 50h33.592a2.933 2.933 0 0 0 2.93-2.93v-2.936l4.896 4.896a3.301 3.301 0 0 0 2.342.968c.848 0 1.696-.322 2.342-.968a3.315 3.315 0 0 0 0-4.683zm-18.756-3.331c-5.923 0-10.743-4.82-10.743-10.743s4.82-10.742 10.743-10.742 10.742 4.82 10.742 10.742c0 5.924-4.819 10.743-10.742 10.743zm-.392-37.682l6.235 6.236h-5.259a.978.978 0 0 1-.976-.977V3.334zm7.616 43.736a.978.978 0 0 1-.977.977H2.93a.977.977 0 0 1-.977-.977V2.93c0-.539.438-.977.977-.977h25v6.64a2.933 2.933 0 0 0 2.93 2.93h6.639v8.317a12.621 12.621 0 0 0-7.224-2.262c-7 0-12.696 5.695-12.696 12.695 0 1.367.218 2.684.62 3.92H6.265a.977.977 0 0 0 0 1.952h12.47a.969.969 0 0 0 .266-.037c2.117 4.072 6.376 6.86 11.274 6.86 2.3 0 4.46-.615 6.322-1.689l.902.902v4.89zm10.152.579a1.36 1.36 0 0 1-1.921 0l-7.494-7.494c.706-.57 1.35-1.214 1.92-1.92l7.495 7.493c.53.53.53 1.392 0 1.921z"/>
        <path d="M30.91 26a.91.91 0 1 0 0 1.818 2.275 2.275 0 0 1 2.272 2.273.91.91 0 1 0 1.818 0A4.095 4.095 0 0 0 30.91 26zM15 27H6a1 1 0 0 0 0 2h9a1 1 0 1 0 0-2zM15.051 21H5.95C5.425 21 5 21.448 5 22s.425 1 .949 1h9.102c.524 0 .949-.448.949-1s-.425-1-.949-1zM19 41c-.263 0-.521.107-.707.293A1.007 1.007 0 0 0 18 42c0 .263.107.521.293.707.186.186.444.293.707.293.263 0 .521-.107.708-.293.186-.186.292-.444.292-.707 0-.263-.106-.521-.292-.707A1.01 1.01 0 0 0 19 41zM14.046 41H5.954C5.428 41 5 41.448 5 42s.428 1 .954 1h8.092c.526 0 .954-.448.954-1s-.427-1-.954-1zM6 16a1.004 1.004 0 0 0 .707-1.708A1.007 1.007 0 0 0 6 14c-.263 0-.52.106-.707.292A1.008 1.008 0 0 0 5 15c0 .263.107.521.293.707.186.186.444.293.707.293zM24.997 14H10.003C9.45 14 9 14.448 9 15s.45 1 1.003 1h14.994C25.55 16 26 15.552 26 15s-.45-1-1.003-1zM5.991 9H25.01A.996.996 0 0 0 26 8c0-.552-.444-1-.991-1H5.99A.996.996 0 0 0 5 8c0 .552.444 1 .991 1z"/>
    </g>
</svg>
