<svg xmlns="http://www.w3.org/2000/svg" width="50" height="50" viewBox="0 0 50 50">
    <g fill="#0079C8" fill-rule="nonzero">
        <path d="M49.905 10.834A2.492 2.492 0 0 0 48.7 9.332a2.683 2.683 0 0 0-1.964-.247 2.572 2.572 0 0 0-1.567 1.154l-.43.718a.882.882 0 0 0-1.172.298l-2.187 3.571-.749-.412a.895.895 0 0 0-.656-.083.86.86 0 0 0-.524.388.807.807 0 0 0 .319 1.122l.75.412-7.32 12.152-1.809 4.628-.86 1.542c-.505.84-.451 1.885.137 2.673l-1.937 2.277-.543-1.303a1.717 1.717 0 0 0-1.462-1.027 1.744 1.744 0 0 0-1.612.796l-.31.503-.293-3.3c-.067-.78-.698-1.408-1.51-1.502-.811-.094-1.58.372-1.84 1.115l-2.118 6.088c-.148.43.095.894.543 1.04.084.037.174.06.267.065a.86.86 0 0 0 .818-.56l2.11-6.089.3 3.35c.063.714.6 1.308 1.328 1.47.73.162 1.484-.146 1.868-.761l.318-.504.534 1.296c.227.546.74.935 1.346 1.022a1.762 1.762 0 0 0 1.6-.602l2.006-2.433c.222.056.45.083.68.083.923.006 1.78-.46 2.247-1.222l.861-1.377 3.281-3.82 7.397-12.3.75.413c.199.11.344.29.404.503a.793.793 0 0 1-.086.627l-3.445 5.717a.795.795 0 0 0-.122.638c.053.22.196.41.398.525.198.11.435.14.656.083a.86.86 0 0 0 .524-.388l3.444-5.717c.343-.57.436-1.246.258-1.88a2.493 2.493 0 0 0-1.205-1.502l-.75-.413 2.153-3.572a.806.806 0 0 0-.31-1.122l.43-.718a2.384 2.384 0 0 0 .259-1.913zm-3.246.23a.857.857 0 0 1 .525-.387.94.94 0 0 1 .654.083c.2.109.346.29.405.503a.834.834 0 0 1-.086.626l-.43.718-1.499-.825.43-.718zM34.922 34.097l-.43-.239-1.275-.71 1.223-3.134 2.712 1.5-2.23 2.583zm-2.583 2.384a.803.803 0 0 1-.258-1.08l.43-.718 1.498.825-.43.71a.86.86 0 0 1-.56.393.892.892 0 0 1-.68-.13zm5.795-6.319l-2.98-1.65 6.89-11.434 2.979 1.65-6.89 11.434zm7.75-12.86l-2.98-1.65 1.723-2.855 2.979 1.65-1.722 2.854zM14.535 38.167l-3.14 2.447-1.881-1.47a1.072 1.072 0 0 0-1.251 0 .628.628 0 0 0-.263.492c0 .185.094.362.263.492l1.88 1.47c.333.258.783.402 1.252.402.471.002.925-.143 1.26-.402l3.132-2.454c.301-.275.28-.685-.047-.94-.328-.257-.852-.273-1.205-.037z"/>
        <path d="M4 39.5a6.5 6.5 0 1 0 13 0 .765.765 0 0 0-1.53 0 4.97 4.97 0 1 1-1.988-3.976.764.764 0 1 0 .918-1.224A6.5 6.5 0 0 0 4 39.5zM30.179 6c.453 0 .821-.447.821-1 0-.552-.368-1-.821-1H8.82C8.368 4 8 4.448 8 5v4c0 .553.368 1 .821 1H30.18c.453 0 .821-.447.821-1 0-.552-.368-1-.821-1H9.643V6h20.536zM10.864 12c-.477 0-.864.448-.864 1 0 .553.387 1 .864 1h17.272c.477 0 .864-.447.864-1 0-.552-.387-1-.864-1H10.864zM32.208 17H14.792c-.438 0-.792.448-.792 1 0 .553.354 1 .792 1h17.416c.438 0 .792-.447.792-1 0-.552-.354-1-.792-1zM25 24c0-.552-.387-1-.864-1H6.864C6.387 23 6 23.448 6 24c0 .553.387 1 .864 1h17.272c.477 0 .864-.447.864-1zM32.111 23H25.89c-.491 0-.889.448-.889 1 0 .553.398 1 .889 1h6.222c.491 0 .889-.447.889-1 0-.552-.398-1-.889-1zM15.167 29c.46 0 .833-.447.833-1 0-.552-.373-1-.833-1H6.833c-.46 0-.833.448-.833 1 0 .553.373 1 .833 1h8.334zM17.889 29h6.222c.491 0 .889-.447.889-1 0-.552-.398-1-.889-1H17.89c-.491 0-.889.448-.889 1 0 .553.398 1 .889 1z"/>
        <path d="M37.174 38.333a.83.83 0 0 0-.826.834V47.5a.83.83 0 0 1-.826.833H2.478a.83.83 0 0 1-.826-.833v-45c0-.46.37-.833.826-.833h33.044a.83.83 0 0 1 .826.833v15.65c0 .46.37.834.826.834A.83.83 0 0 0 38 18.15V2.5C38 1.12 36.89 0 35.522 0H2.478A2.49 2.49 0 0 0 0 2.5v45A2.49 2.49 0 0 0 2.478 50h33.044A2.49 2.49 0 0 0 38 47.5v-8.333a.83.83 0 0 0-.826-.834z"/>
    </g>
</svg>
