<svg xmlns="http://www.w3.org/2000/svg" width="61" height="61" viewBox="0 0 61 61">
    <g fill="#848484" fill-rule="nonzero" opacity=".562">
        <path d="M43.352 31.484c.585 0 1.15.17 1.638.496l6.87 4.58c.813.54 1.756.827 2.73.827H61V35.42h-6.41a2.945 2.945 0 0 1-1.637-.495l-2.776-1.85V0H12.79v5.903H0V61h37.387v-5.903h12.79v-8.278c.062-.015.126-.02.188-.034l4.577-1.144a12.806 12.806 0 0 1 3.106-.383H61V43.29h-2.952c-1.206 0-2.412.149-3.583.441l-4.577 1.144a12.867 12.867 0 0 1-7.154-.274l-1.658-.553a14.752 14.752 0 0 0-4.673-.758h-8.585a2.955 2.955 0 0 1 2.952-2.951h10.822a2.955 2.955 0 0 0 2.952-2.952c0-1.51-1.144-2.743-2.606-2.917l.807-2.986h.607zM42.11 46.467c1.51.504 3.082.759 4.673.759.477 0 .954-.042 1.428-.088v5.991H37.387v-3.218c.346-.398.613-.87.757-1.403l.805-2.984c.507.103 1.01.226 1.503.391l1.657.552zm-5.131-1.186l-.733 2.713c-.191.707-.835 1.2-1.566 1.2h-.32a1.623 1.623 0 0 1-1.565-2.045l.511-1.89h3.098c.192 0 .383.014.575.022zm-5.712-.023l-.372 1.376c-.082.305-.124.62-.124.938 0 1.33.736 2.48 1.814 3.1l-.309 1.234 1.909.477.306-1.222h.189c.253 0 .5-.035.74-.086v7.957H1.968V7.871h12.79V1.968H48.21v29.794l-2.129-1.42a4.911 4.911 0 0 0-2.729-.826h-.076l4.095-15.15a3.593 3.593 0 0 0-3.465-4.527h-.319a3.596 3.596 0 0 0-3.465 2.653l-2.735 10.12V5.903H16.726v1.968h18.693v21.645h-2.035c-1.07 0-2.08.355-2.922.984h-9.8v1.968h7.732l-1.967 1.967H20.66v1.968h3.799l-1.644 1.644c-.58.58-.9 1.351-.9 2.173a3.074 3.074 0 0 0 3.071 3.07c.303 0 .596-.058.879-.142-.001.048-.015.093-.015.142a1.97 1.97 0 0 0 1.968 1.968h3.447zm7.58-6.887h-3.68l4.155-15.372 3.375 1.125-3.85 14.247zm-7.549-6.023c.55-.55 1.31-.864 2.087-.864h1.605l-.802 2.97a4.875 4.875 0 0 0-3.297 1.422l-5.123 5.123a1.104 1.104 0 0 1-1.56-1.56l7.09-7.091zm.984 4.919a2.965 2.965 0 0 1 1.35-.758l-.503 1.862h-1.95l1.103-1.104zm13.19-23.415l-1.204 4.458-3.375-1.125 1.13-4.179c.19-.707.835-1.2 1.565-1.2h.32a1.623 1.623 0 0 1 1.564 2.046zm-5.093 5.236l3.375 1.125-.543 2.008-3.375-1.125.543-2.008zm1.214 17.315c.542 0 .984.442.984.984a.985.985 0 0 1-.984.984h-.709l.532-1.968h.177z"/>
        <path d="M29.576 9.242H3.697V19.41h25.879V9.242zm-1.99 8.134H5.687v-6.1h21.897v6.1z"/>
        <path d="M8.318 13.864h1.849v1.848H8.318zM12.015 13.864h1.849v1.848h-1.849zM15.712 13.864h1.849v1.848h-1.849zM19.41 13.864h1.848v1.848h-1.849zM24.03 13.864h1.849v1.848H24.03zM15.712 31.886H13.71v4.005H5.7v-8.01h6.007V25.88h-8.01v12.015h12.015z"/>
        <path d="M18.97 22.182l-8.965 9.212-1.247-1.282-1.364 1.402 2.611 2.683 10.328-10.613zM13.71 52.528H5.7v-8.01h6.007v-2.003h-8.01V54.53h12.015v-6.007H13.71z"/>
        <path d="M8.758 46.748L7.394 48.15l2.611 2.683L20.333 40.22l-1.364-1.402-8.964 9.212zM31.424 54.53h1.849v1.849h-1.849zM18.485 54.53h11.09v1.849h-11.09zM20.333 26.803h12.94v1.849h-12.94z"/>
    </g>
</svg>
