<svg xmlns="http://www.w3.org/2000/svg" width="37" height="53" viewBox="0 0 37 53">
    <g fill="#0079C8" fill-rule="nonzero">
        <path d="M4.436 53h28.128A4.448 4.448 0 0 0 37 48.552V4.448A4.448 4.448 0 0 0 32.564 0H4.436A4.448 4.448 0 0 0 0 4.448v44.104A4.448 4.448 0 0 0 4.436 53zM1.762 4.448a2.682 2.682 0 0 1 2.674-2.681h28.128a2.682 2.682 0 0 1 2.674 2.681v44.104a2.682 2.682 0 0 1-2.674 2.681H4.436a2.682 2.682 0 0 1-2.674-2.681V4.448z"/>
        <path d="M4.882 46h28.236a.879.879 0 0 0 .882-.875V4.875A.879.879 0 0 0 33.118 4H4.882A.879.879 0 0 0 4 4.875v40.25c0 .483.395.875.882.875zm.883-1.75V20.625h3.53V35.5c0 .483.394.875.881.875h17.648a.879.879 0 0 0 .882-.875V20.625h3.53V44.25H5.764zM26.94 15.375H11.06v-3.5h12.87l3.012 2.987v.513zm5.294 1.75v1.75H5.765v-1.75h26.47zm-21.176 3.5H26.94v14H11.06v-14zM32.235 5.75v9.625h-3.53V14.5a.871.871 0 0 0-.258-.619l-3.53-3.5a.886.886 0 0 0-.623-.256H10.176a.879.879 0 0 0-.882.875v4.375h-3.53V5.75h26.471zM16 48h2v2h-2zM19 48h2v2h-2z"/>
        <path d="M13 24h11v2H13zM13 29h11v2H13z"/>
    </g>
</svg>
