<svg xmlns="http://www.w3.org/2000/svg" width="43" height="51" viewBox="0 0 43 51">
    <g fill="#0079C8" fill-rule="nonzero">
        <path d="M42.698 11.442c-.001-.007-.004-.004-.004-.004l-.026-.025L31.353.326a1.14 1.14 0 0 0-.8-.326H3.395C1.523 0 0 1.492 0 3.326v44.348C0 49.508 1.523 51 3.394 51h36.211C41.477 51 43 49.508 43 47.674V12.196c0-.292-.115-.557-.302-.754zm-1.961 36.232c0 .61-.507 1.109-1.132 1.109H3.394a1.12 1.12 0 0 1-1.13-1.11V3.327c0-.61.506-1.109 1.13-1.109h23.764v4.435H7.92A1.12 1.12 0 0 0 6.79 7.761v6.652a1.12 1.12 0 0 0 1.132 1.109 1.12 1.12 0 0 0 1.132-1.109V8.87h18.105v5.543a1.12 1.12 0 0 0 1.131 1.109h12.448v32.152zm0-34.37H29.42V2.217h.663l10.653 10.439v.648z"/>
        <path d="M10 31c0 6.065 5.159 11 11.5 11S33 37.065 33 31c0-2.746-1.065-5.254-2.81-7.184l1.467-2.105a1.07 1.07 0 0 0-.319-1.526c-.531-.338-1.244-.2-1.595.305l-1.252 1.796A11.769 11.769 0 0 0 21.5 20C15.159 20 10 24.935 10 31zm7.131-.44l3.45 4.4c.216.277.558.44.92.44h.031c.374-.01.719-.192.926-.49l6.396-9.177C30.007 27.204 30.7 29.023 30.7 31c0 4.852-4.127 8.8-9.2 8.8-5.073 0-9.2-3.948-9.2-8.8s4.127-8.8 9.2-8.8c2.16 0 4.143.72 5.715 1.916l-5.77 8.28-2.475-3.156a1.183 1.183 0 0 0-1.609-.22 1.068 1.068 0 0 0-.23 1.54z"/>
    </g>
</svg>
