<?xml version="1.0" encoding="utf-8"?>
<!-- Generator: Adobe Illustrator 23.1.1, SVG Export Plug-In . SVG Version: 6.00 Build 0)  -->
<svg version="1.1" id="Layer_1" xmlns="http://www.w3.org/2000/svg" xmlns:xlink="http://www.w3.org/1999/xlink" x="0px" y="0px"
	 viewBox="0 0 59.98 44.27" style="enable-background:new 0 0 59.98 44.27;" xml:space="preserve">
<style type="text/css">
	.st0{fill:#1C79BE;}
</style>
<g>
	<path class="st0" d="M18.95,37.61c-1.15,3.49-3.21,5.12-6.37,4.96c-2.37-0.12-4.84-1.77-5.52-4.99c-0.2,0-0.42,0-0.64,0
		c-1.75,0-3.5,0-5.25,0C0.33,37.57,0,37.24,0,36.4c0-8.54,0-17.09,0-25.63C0,9.91,0.33,9.6,1.24,9.6c9.96,0,19.92,0,29.88,0
		c0.27,0,0.54,0,0.89,0c0-0.95,0-1.86,0-2.77c0-0.92,0.31-1.23,1.23-1.24c1.21,0,2.42-0.01,3.63,0c0.76,0,1.1,0.35,1.11,1.11
		c0.01,0.93,0,1.87,0,2.89c0.26,0,0.48,0,0.7,0c3.35,0,6.71,0.01,10.06-0.01c0.59,0,0.96,0.21,1.26,0.72
		c3.22,5.5,6.46,10.98,9.67,16.48c0.18,0.31,0.29,0.7,0.29,1.05c0.02,2.83,0.01,5.67,0.01,8.5c0,0.92-0.31,1.24-1.23,1.24
		c-1.27,0-2.54,0-3.78,0c-1.15,3.43-3.08,5.01-6.06,5c-2.8-0.01-4.77-1.66-5.87-4.97C35.01,37.61,26.97,37.61,18.95,37.61z
		 M2.01,11.59c0,8.04,0,16,0,24.02c1.54,0,3.04,0,4.53,0c0.16,0,0.33-0.02,0.48-0.02c1.17-3.44,3.08-4.99,6.12-4.98
		c2.75,0.01,4.75,1.71,5.8,4.96c8.04,0,16.09,0,24.13,0c0.71-3.28,3.27-4.87,5.57-4.95c3.16-0.11,5.21,1.53,6.3,4.95
		c1,0,2.01,0,3.07,0c0-0.27,0-0.49,0-0.72c0-2.1,0.02-4.21-0.02-6.31c-0.01-0.41-0.14-0.85-0.34-1.22
		c-0.56-1.04-1.21-2.04-1.78-3.08c-0.27-0.5-0.58-0.69-1.16-0.68c-4.48,0.03-8.96,0.02-13.44,0.02c-0.97,0-1.27-0.3-1.27-1.26
		c0-3.35,0-6.71,0-10.06c0-0.22,0-0.44,0-0.66C27.29,11.59,14.67,11.59,2.01,11.59z M42,21.56c4.11,0,8.15,0,12.23,0
		c-0.03-0.1-0.04-0.17-0.07-0.22c-1.85-3.16-3.7-6.32-5.58-9.46c-0.1-0.17-0.43-0.3-0.66-0.3c-1.71-0.02-3.41-0.01-5.12-0.01
		c-0.26,0-0.52,0-0.79,0C42,14.95,42,18.23,42,21.56z M16.99,36.64c0.01-2.22-1.78-4.04-3.97-4.05c-2.19-0.01-4.01,1.77-4.03,3.93
		c-0.02,2.25,1.77,4.08,4,4.08C15.16,40.6,16.98,38.8,16.99,36.64z M53,36.61c0-2.21-1.79-4.02-4-4.02c-2.18,0-3.99,1.79-4,3.95
		c-0.01,2.22,1.77,4.04,3.97,4.05C51.17,40.61,52.99,38.81,53,36.61z M34.03,7.59c0,0.65,0,1.31,0,1.96c0.68,0,1.31,0,1.94,0
		c0-0.67,0-1.31,0-1.96C35.32,7.59,34.7,7.59,34.03,7.59z"/>
	<path class="st0" d="M29.48,4.25c0.37-0.36,0.81-0.8,1.28-1.26c0.39,0.45,0.81,0.92,1.25,1.43c-0.37,0.32-0.85,0.74-1.35,1.18
		C30.34,5.23,29.92,4.75,29.48,4.25z"/>
	<path class="st0" d="M39.11,5.6c-0.34-0.35-0.77-0.79-1.23-1.26c0.46-0.41,0.94-0.82,1.45-1.27c0.32,0.37,0.73,0.85,1.17,1.36
		C40.13,4.74,39.64,5.15,39.11,5.6z"/>
	<path class="st0" d="M34.06,1.62c0.65,0,1.24,0,1.88,0c0,0.63,0,1.25,0,1.9c-0.61,0-1.22,0-1.88,0
		C34.06,2.89,34.06,2.26,34.06,1.62z"/>
</g>
</svg>
