<svg id="handsbl" xmlns="http://www.w3.org/2000/svg" width="68.445" height="49.612" viewBox="0 0 68.445 49.612">
  <g id="trust">
    <path id="Trazado_236" data-name="Trazado 236" d="M55.519,189.623l-5.5,5.5c-.072-.087-.148-.171-.229-.253l-7.1-7.1a1,1,0,0,0-1.421,1.421l7.1,7.1a1.565,1.565,0,1,1-2.213,2.213l-3.944-3.944a1,1,0,0,0-1.421,1.421l3.944,3.944h0a1.565,1.565,0,0,1-2.213,2.212l-3.944-3.944a1,1,0,0,0-1.421,1.421l3.944,3.944a1.565,1.565,0,0,1-2.213,2.213l-3.944-3.944a1,1,0,0,0-1.421,1.421l3.944,3.944a1.565,1.565,0,1,1-2.213,2.213l-2.555-2.555a3.537,3.537,0,0,0-.531-4.314l-.061-.061a3.526,3.526,0,0,0-2.851-1.015,3.526,3.526,0,0,0-2.675-3.185,3.534,3.534,0,0,0-4.823-4.456,3.529,3.529,0,0,0-5.893-1.535l-.414.414-.3-.3a2.555,2.555,0,0,1-.753-1.819v-2.62a1,1,0,0,0-.294-.71l-4.289-4.289,1.206-1.206a1,1,0,0,0-1.421-1.421L7.99,181.942a.782.782,0,0,1-1.105,0l-5.17-5.17a1,1,0,0,0-1.421,1.421l5.17,5.17a2.773,2.773,0,0,0,2.653.729l4.277,4.277v2.2a4.552,4.552,0,0,0,1.342,3.239l.3.3-.336.336a3.529,3.529,0,0,0,2.5,6.026h.043c0,.015,0,.03,0,.045a3.531,3.531,0,0,0,3.531,3.531h.045a3.524,3.524,0,0,0,3.529,3.572h.044a3.52,3.52,0,0,0,1.032,2.542l.061.061a3.531,3.531,0,0,0,4.994,0l1.884-1.884,2.48,2.48a3.571,3.571,0,0,0,6.1-2.588H40a3.57,3.57,0,0,0,3.571-3.637h.063a3.571,3.571,0,0,0,3.574-3.572c0-.021,0-.042,0-.063h.061a3.567,3.567,0,0,0,3.563-3.812l6.109-6.109a1,1,0,0,0-1.421-1.421Zm-40.4,8.4a1.522,1.522,0,0,1,0-2.152l2.171-2.171a1.522,1.522,0,1,1,2.152,2.152l-2.171,2.171A1.524,1.524,0,0,1,15.123,198.024Zm4.649,4.019a1.522,1.522,0,0,1-1.076-2.6l2.171-2.171,1.35-1.35a1.522,1.522,0,0,1,2.152,2.152L20.848,201.6a1.512,1.512,0,0,1-1.076.446Zm2.5,3.127a1.524,1.524,0,0,1,0-2.152l2.4-2.4a1.522,1.522,0,0,1,2.153,2.152l-2.4,2.4A1.523,1.523,0,0,1,22.269,205.17Zm5.786,3.634a1.522,1.522,0,0,1-2.152,0l-.06-.06a1.523,1.523,0,0,1,0-2.152l2.4-2.4,0,0,.3-.3a1.524,1.524,0,0,1,2.152,0l.06.06a1.523,1.523,0,0,1,0,2.152Z" transform="translate(0 -162.255)" fill="#114065"/>
    <path id="Trazado_237" data-name="Trazado 237" d="M147.926,89.048a1,1,0,0,0-1.421,0l-3.765,3.765a.137.137,0,0,1-.19,0L129.241,80.1a.136.136,0,0,1,0-.195l7.894-7.894a1,1,0,0,0-1.421-1.421l-7.894,7.894a2.141,2.141,0,0,0-.186,2.818l-3.613,3.543-3.4-1.9a3,3,0,0,0-1.459-.379h-9.671l-.736-.736a6.773,6.773,0,0,0-2.393-1.55l-2.677-1.02-1.237-1.237a2.793,2.793,0,0,0-.42-3.4l-4.031-4.031a1,1,0,1,0-1.421,1.421l4.031,4.031a.782.782,0,0,1,0,1.105l-8.193,8.193a1,1,0,0,0,1.421,1.421l7.254-7.254,1.327,1.327a1.006,1.006,0,0,0,.353.229l2.878,1.1a4.775,4.775,0,0,1,1.649,1.057c-.061.051-.121.1-.178.161L103.292,87.2a4.014,4.014,0,0,0,5.388,5.94l2.891-2.377h3.012l3.441,3.441a1,1,0,1,0,1.421-1.421L116.959,90.3a1,1,0,0,0-.847-1.544h-4.9a1,1,0,0,0-.638.229L107.4,91.588a2.005,2.005,0,0,1-2.691-2.967l3.821-3.821a.752.752,0,0,1,.535-.222h10.087a.987.987,0,0,1,.48.125l3.765,2.1a1.466,1.466,0,0,0,1.729-.231l3.935-3.859L139.9,93.061l-1.577,1.577a1,1,0,0,0,1.421,1.421l1.623-1.623a2.156,2.156,0,0,0,2.8-.2l3.765-3.765A1,1,0,0,0,147.926,89.048Z" transform="translate(-79.776 -70.297)" fill="#114065"/>
  </g>
</svg>
