<svg id="heartbl" xmlns="http://www.w3.org/2000/svg" width="54.99" height="55.002" viewBox="0 0 54.99 55.002">
  <g id="Grupo_487" data-name="Grupo 487" transform="translate(10.633)">
    <g id="Grupo_486" data-name="Grupo 486">
      <path id="Trazado_244" data-name="Trazado 244" d="M131.6,3.114a9.177,9.177,0,0,0-14.559,1.023c-.145.2-.281.406-.408.607-.127-.2-.263-.4-.408-.607a9.178,9.178,0,0,0-14.56-1.023,10.741,10.741,0,0,0-2.63,7.174c0,2.956,1.147,5.684,3.61,8.585a77.936,77.936,0,0,0,8.8,8.145c1.319,1.113,2.683,2.264,4.132,3.52a1.611,1.611,0,0,0,2.11,0c1.449-1.256,2.813-2.407,4.132-3.52,2.292-1.935,4.272-3.606,5.99-5.226,3.335-3.147,6.421-6.718,6.421-11.5A10.74,10.74,0,0,0,131.6,3.114Zm-6,16.334c-1.653,1.559-3.6,3.2-5.857,5.107-1,.847-2.033,1.715-3.108,2.638-1.076-.922-2.106-1.791-3.109-2.638-7.026-5.93-11.266-9.509-11.266-14.268,0-4.028,2.743-7.066,6.382-7.066a5.928,5.928,0,0,1,4.914,2.72,10.842,10.842,0,0,1,1.527,3.027,1.611,1.611,0,0,0,3.105,0c.016-.057,1.647-5.746,6.441-5.746,3.638,0,6.382,3.038,6.382,7.066C131.009,13.207,129.492,15.775,125.6,19.448Z" transform="translate(-99.036)" fill="#114065"/>
    </g>
  </g>
  <g id="Grupo_489" data-name="Grupo 489" transform="translate(0 31.8)">
    <g id="Grupo_488" data-name="Grupo 488" transform="translate(0)">
      <path id="Trazado_245" data-name="Trazado 245" d="M50.214,296.668a4.85,4.85,0,0,0-3.537,1.539l-4.735,5.083a4.842,4.842,0,0,0-4.616-3.4H29.883a4.28,4.28,0,0,1-2.829-1.067,11.3,11.3,0,0,0-14.778-.1,4.83,4.83,0,0,0-3.949-2.052H1.668A1.611,1.611,0,0,0,.057,298.28v19.332a1.611,1.611,0,0,0,1.611,1.611H8.327a4.822,4.822,0,0,0,3.633-1.651l.954.268a37.051,37.051,0,0,0,10.027,1.382H37.325a11.331,11.331,0,0,0,9.022-4.511L54.082,304.4h0a4.833,4.833,0,0,0-3.868-7.73ZM9.938,314.39A1.613,1.613,0,0,1,8.327,316H3.279V299.89H8.327A1.613,1.613,0,0,1,9.938,301.5ZM51.5,302.466h0l-7.734,10.313A8.094,8.094,0,0,1,37.325,316H22.941a33.83,33.83,0,0,1-9.155-1.262l-.63-.177c0-.057,0-.114,0-.172V302.23l1.123-.988a8.073,8.073,0,0,1,10.643,0,7.5,7.5,0,0,0,4.957,1.871h7.442a1.611,1.611,0,0,1,0,3.222H25.876a1.611,1.611,0,1,0,0,3.222H38.405a4.849,4.849,0,0,0,3.537-1.539l7.093-7.614a1.6,1.6,0,0,1,1.179-.513,1.613,1.613,0,0,1,1.611,1.611A1.6,1.6,0,0,1,51.5,302.466Z" transform="translate(-0.057 -296.021)" fill="#114065"/>
    </g>
  </g>
</svg>
