<svg id="hospitalbl" xmlns="http://www.w3.org/2000/svg" width="47.56" height="54.597" viewBox="0 0 47.56 54.597">
  <g id="Grupo_475" data-name="Grupo 475">
    <g id="Grupo_474" data-name="Grupo 474" transform="translate(0)">
      <path id="Trazado_238" data-name="Trazado 238" d="M72.87,21.717h-13.3v-5.7A3.67,3.67,0,0,0,55.9,12.375H54.6V3.692A3.709,3.709,0,0,0,50.936,0H36.9a3.7,3.7,0,0,0-3.655,3.692v8.684H32.69A3.685,3.685,0,0,0,29,16.013V53.332A1.3,1.3,0,0,0,30.263,54.6H75.3a1.3,1.3,0,0,0,1.264-1.265V25.31A3.647,3.647,0,0,0,72.87,21.717ZM35.673,3.692A1.273,1.273,0,0,1,36.9,2.427H50.936a1.281,1.281,0,0,1,1.238,1.265v8.684h-16.5ZM47.927,52.17H39.919V45.706a1.171,1.171,0,0,1,1.163-1.179h5.639a1.179,1.179,0,0,1,1.2,1.152c0,.009,0,.018,0,.027V52.17Zm9.221,0H50.353V45.706a3.608,3.608,0,0,0-3.61-3.606H41.116a3.6,3.6,0,0,0-3.623,3.578c0,.009,0,.019,0,.028V52.17H31.427V16.013A1.257,1.257,0,0,1,32.69,14.8H55.9a1.24,1.24,0,0,1,1.245,1.211Zm16.986,0H59.574V47.2H74.133Zm0-7.4H59.574V39.552H74.133Zm0-7.644H59.574V31.909H74.133Zm0-7.644H59.574V24.144h13.3a1.22,1.22,0,0,1,1.263,1.166Z" transform="translate(-29 0)" fill="#114065"/>
    </g>
  </g>
  <g id="Grupo_477" data-name="Grupo 477" transform="translate(4.889 17.733)">
    <g id="Grupo_476" data-name="Grupo 476">
      <path id="Trazado_239" data-name="Trazado 239" d="M79.444,144H74.111A1.111,1.111,0,0,0,73,145.111v5.333a1.111,1.111,0,0,0,1.111,1.111h5.333a1.111,1.111,0,0,0,1.111-1.111v-5.333A1.111,1.111,0,0,0,79.444,144Zm-1.222,5.333h-3v-3.111h3Z" transform="translate(-73 -144)" fill="#114065"/>
    </g>
  </g>
  <g id="Grupo_479" data-name="Grupo 479" transform="translate(16.668 17.733)">
    <g id="Grupo_478" data-name="Grupo 478">
      <path id="Trazado_240" data-name="Trazado 240" d="M170.444,144h-5.333A1.111,1.111,0,0,0,164,145.111v5.333a1.111,1.111,0,0,0,1.111,1.111h5.333a1.111,1.111,0,0,0,1.111-1.111v-5.333A1.111,1.111,0,0,0,170.444,144Zm-1.222,5.333h-3v-3.111h3Z" transform="translate(-164 -144)" fill="#114065"/>
    </g>
  </g>
  <g id="Grupo_481" data-name="Grupo 481" transform="translate(4.889 30.171)">
    <g id="Grupo_480" data-name="Grupo 480">
      <path id="Trazado_241" data-name="Trazado 241" d="M79.444,245H74.111A1.111,1.111,0,0,0,73,246.111v5.333a1.111,1.111,0,0,0,1.111,1.111h5.333a1.111,1.111,0,0,0,1.111-1.111v-5.333A1.111,1.111,0,0,0,79.444,245Zm-1.222,5.333h-3v-3.111h3Z" transform="translate(-73 -245)" fill="#114065"/>
    </g>
  </g>
  <g id="Grupo_483" data-name="Grupo 483" transform="translate(16.668 30.171)">
    <g id="Grupo_482" data-name="Grupo 482">
      <path id="Trazado_242" data-name="Trazado 242" d="M170.444,245h-5.333A1.111,1.111,0,0,0,164,246.111v5.333a1.111,1.111,0,0,0,1.111,1.111h5.333a1.111,1.111,0,0,0,1.111-1.111v-5.333A1.111,1.111,0,0,0,170.444,245Zm-1.222,5.333h-3v-3.111h3Z" transform="translate(-164 -245)" fill="#114065"/>
    </g>
  </g>
  <g id="Grupo_485" data-name="Grupo 485" transform="translate(10.796 2.761)">
    <g id="Grupo_484" data-name="Grupo 484" transform="translate(0)">
      <path id="Trazado_243" data-name="Trazado 243" d="M123.159,27.753H121.42V25.958a1.111,1.111,0,1,0-2.222,0v1.795h-1.739a1.111,1.111,0,1,0,0,2.222H119.2v1.684a1.111,1.111,0,1,0,2.222,0V29.975h1.739a1.111,1.111,0,1,0,0-2.222Z" transform="translate(-116.347 -24.847)" fill="#114065"/>
    </g>
  </g>
</svg>
