<?xml version="1.0" encoding="utf-8"?>
<!-- Generator: Adobe Illustrator 23.1.1, SVG Export Plug-In . SVG Version: 6.00 Build 0)  -->
<svg version="1.1" id="Layer_1" xmlns="http://www.w3.org/2000/svg" xmlns:xlink="http://www.w3.org/1999/xlink" x="0px" y="0px"
	 viewBox="0 0 60 60" style="enable-background:new 0 0 60 60;" xml:space="preserve">
<style type="text/css">
	.st0{opacity:0.699;}
	.st1{fill:#333333;}
</style>
<g>
	<g class="st0">
		<path class="st1" d="M26.5,21.8h-4.6c-0.4,0-0.8,0.3-0.8,0.7c0,0.4,0.3,0.7,0.8,0.7h4.6c0.4,0,0.8-0.3,0.8-0.7
			C27.2,22.1,26.9,21.8,26.5,21.8z M26.5,24.7h-4.6c-0.4,0-0.8,0.3-0.8,0.7c0,0.4,0.3,0.7,0.8,0.7h4.6c0.4,0,0.8-0.3,0.8-0.7
			C27.2,25.1,26.9,24.7,26.5,24.7z M26.5,27.7h-4.6c-0.4,0-0.8,0.3-0.8,0.7c0,0.4,0.3,0.7,0.8,0.7h4.6c0.4,0,0.8-0.3,0.8-0.7
			C27.2,28,26.9,27.7,26.5,27.7z M26.5,30.6h-4.6c-0.4,0-0.8,0.3-0.8,0.7c0,0.4,0.3,0.7,0.8,0.7h4.6c0.4,0,0.8-0.3,0.8-0.7
			C27.2,30.9,26.9,30.6,26.5,30.6z M26.5,33.6h-4.6c-0.4,0-0.8,0.3-0.8,0.7c0,0.4,0.3,0.7,0.8,0.7h4.6c0.4,0,0.8-0.3,0.8-0.7
			C27.2,33.9,26.9,33.6,26.5,33.6z M29,23.3h4.6c0.4,0,0.8-0.3,0.8-0.7c0-0.4-0.3-0.7-0.8-0.7H29c-0.4,0-0.8,0.3-0.8,0.7
			C28.3,23,28.6,23.3,29,23.3L29,23.3z M29,26.2h4.6c0.4,0,0.8-0.3,0.8-0.7c0-0.4-0.3-0.7-0.8-0.7H29c-0.4,0-0.8,0.3-0.8,0.7
			C28.3,25.9,28.6,26.2,29,26.2L29,26.2z M32,28.4c0-0.4-0.3-0.7-0.8-0.7H29c-0.4,0-0.8,0.3-0.8,0.7c0,0.4,0.3,0.7,0.8,0.7h2.2
			C31.6,29.1,32,28.8,32,28.4z M39.2,33.9c-0.3-0.3-0.8-0.2-1.1,0.1l-2,2.4L35,35.5c-0.3-0.2-0.8-0.2-1.1,0.2
			c-0.2,0.3-0.2,0.8,0.1,1c0,0,0,0,0,0l1.8,1.3c0.3,0.2,0.8,0.2,1-0.1l2.4-2.9C39.6,34.6,39.6,34.2,39.2,33.9
			C39.2,33.9,39.2,33.9,39.2,33.9z"/>
		<path class="st1" d="M41.2,31.6c-1-1-2.3-1.6-3.7-1.8V20c0-1.6-1.4-3-3.1-3H21.1c-1.7,0-3.1,1.3-3.1,3v17c0,1.6,1.4,3,3.1,3h10.7
			c1.2,1.4,2.9,2.1,4.8,2.1c3.5,0,6.3-2.7,6.3-6.1C43,34.3,42.3,32.8,41.2,31.6z M19.5,36.9V20c0-0.8,0.7-1.5,1.5-1.5h13.3
			c0.9,0,1.5,0.7,1.5,1.5v9.9c-3.2,0.3-5.7,2.9-5.7,6.1c0,0.9,0.2,1.7,0.6,2.5h-9.8C20.2,38.4,19.5,37.7,19.5,36.9z M36.6,40.5
			c-1.5,0-2.9-0.7-3.8-1.8c-0.6-0.8-1-1.8-1-2.8c0-2.5,2.2-4.6,4.8-4.6h0.1l0,0c1.3,0,2.4,0.5,3.3,1.4c0.9,0.8,1.4,2,1.4,3.2
			C41.4,38.5,39.3,40.5,36.6,40.5L36.6,40.5z"/>
	</g>
</g>
</svg>
