<svg xmlns="http://www.w3.org/2000/svg" width="60" height="60" viewBox="0 0 60 60">
    <g fill="none" fill-rule="evenodd">
        <circle cx="30" cy="30" r="30" stroke="#333" stroke-width="1.776" opacity=".7"/>
        <g fill="#707070" fill-rule="nonzero">
            <path stroke="#707070" stroke-width=".5" d="M20.025 20.083v22.5c0 .23.187.417.418.417H40.54a.418.418 0 0 0 .42-.417v-22.5a.418.418 0 0 0-.42-.416h-4.605v.833h4.187v21.667h-19.26V20.5h4.187v-.833h-4.606a.418.418 0 0 0-.418.416z"/>
            <path d="M33.478 18h-5.973a1.617 1.617 0 0 0-1.619 1.611v.944c.001.89.726 1.61 1.62 1.612h5.972a1.617 1.617 0 0 0 1.62-1.612v-.944A1.617 1.617 0 0 0 33.477 18zm.782 2.555a.78.78 0 0 1-.782.778h-5.973a.78.78 0 0 1-.782-.778v-.944c0-.43.35-.777.782-.778h5.973a.78.78 0 0 1 .782.778v.944z"/>
            <path d="M22.118 21.75v18.333c0 .23.187.417.419.417h15.91a.418.418 0 0 0 .419-.417V21.75h-.838v17.917H22.955V21.75h-.837z"/>
            <path d="M25.049 26.75c0 1.38 1.125 2.5 2.512 2.5a2.506 2.506 0 0 0 2.512-2.5c0-1.38-1.125-2.5-2.512-2.5a2.509 2.509 0 0 0-2.512 2.5zm2.93-1.608a1.671 1.671 0 0 1 1.197 1.191H27.98v-1.19zm-.837 0v1.608c0 .23.188.417.42.417h1.614a1.672 1.672 0 0 1-3.238-.826 1.668 1.668 0 0 1 1.204-1.199zM25.468 30.917h11v.833h-11zM25.468 32.583h11v.834h-11zM25.468 34.25h11v.833h-11z"/>
        </g>
    </g>
</svg>
