<svg xmlns="http://www.w3.org/2000/svg" width="60" height="60" viewBox="0 0 60 60">
    <g fill="none" fill-rule="evenodd">
        <circle cx="30" cy="30" r="30" stroke="#333" stroke-width="1.776" opacity=".7"/>
        <g fill="#707070" fill-rule="nonzero">
            <path stroke="#707070" stroke-width=".2" d="M39.878 20.477l-3.333-3.354A.413.413 0 0 0 36.25 17H20.417a.418.418 0 0 0-.417.42v25.16c0 .232.186.42.417.42h19.166c.23 0 .417-.188.417-.42V20.775a.418.418 0 0 0-.122-.297zm-3.211-2.045l1.91 1.923h-1.91v-1.923zm2.5 23.73H20.833V17.838h15v2.935c0 .232.186.42.417.42h2.917V42.16z"/>
            <path d="M21.667 18.677H35v.84H21.667zM21.667 20.355H35v.839H21.667zM21.667 22.032H35v.839H21.667zM29.167 36.71c0 2.543 2.056 4.613 4.583 4.613s4.583-2.07 4.583-4.613c0-2.544-2.056-4.613-4.583-4.613s-4.583 2.07-4.583 4.613zm8.333 0c0 2.08-1.682 3.774-3.75 3.774S30 38.79 30 36.71c0-2.081 1.682-3.775 3.75-3.775s3.75 1.694 3.75 3.775z"/>
            <path d="M33.333 33.774v2.516h-2.5v.839h2.5v2.516h.834V37.13h2.5v-.839h-2.5v-2.516zM21.667 40.484h.833v.839h-.833zM23.333 40.484h.834v.839h-.834zM25 40.484h.833v.839H25zM21.667 30.42h5v.838h-5zM21.667 32.097h5v.838h-5zM21.667 33.774h5v.839h-5zM21.667 35.452h5v.838h-5z"/>
        </g>
    </g>
</svg>
