<svg xmlns="http://www.w3.org/2000/svg" width="60" height="60" viewBox="0 0 60 60">
    <g fill="none" fill-rule="evenodd">
        <circle cx="30" cy="30" r="30" stroke="#333" stroke-width="1.776" opacity=".7"/>
        <g fill="#333" fill-rule="nonzero" opacity=".699">
            <path d="M30.398 33.947h-1.524a1.01 1.01 0 0 1-1.003-1.016 1.01 1.01 0 0 1 1.003-1.016h2.682a.671.671 0 0 0 .665-.674c0-.37-.3-.674-.665-.674h-1.258v-.937c0-.37-.3-.674-.665-.674a.671.671 0 0 0-.665.674v.937h-.094c-1.286 0-2.334 1.061-2.334 2.364 0 1.302 1.048 2.363 2.334 2.363h1.524A1.01 1.01 0 0 1 31.4 36.31a1.01 1.01 0 0 1-1.003 1.016h-2.732a.671.671 0 0 0-.666.673c0 .37.3.674.666.674h1.307v.96c0 .37.3.673.666.673a.671.671 0 0 0 .665-.673v-.96h.127c1.275-.017 2.3-1.072 2.3-2.363 0-1.303-1.047-2.363-2.333-2.363z"/>
            <path d="M39.631 32.42a19.35 19.35 0 0 0-2.882-4.682 21.583 21.583 0 0 0-3.69-3.553l2.826-5.31a.67.67 0 0 0-.122-.797C35.03 17.354 34.255 17 33.39 17c-.793 0-1.519.303-2.15.573-.5.207-.97.41-1.353.41a.832.832 0 0 1-.316-.057c-1.319-.488-2.333-.791-3.314-.791-1.242 0-2.3.505-3.337 1.583a.684.684 0 0 0-.077.842l3.048 4.664a21.946 21.946 0 0 0-3.641 3.514c-1.214 1.477-2.184 3.054-2.882 4.682a16.093 16.093 0 0 0-1.32 6.354c0 2.88 2.318 5.226 5.16 5.226H35.79c2.843 0 5.16-2.346 5.16-5.226 0-2.167-.443-4.305-1.319-6.354zM24.263 19.279c.643-.561 1.258-.808 1.995-.808.787 0 1.674.27 2.854.713.244.09.504.134.77.134.649 0 1.27-.258 1.863-.51.57-.242 1.114-.472 1.64-.472.255 0 .615.045 1.07.37l-2.66 5.008H27.16l-2.898-4.435zM35.79 42.653H23.21c-2.112 0-3.83-1.74-3.83-3.879 0-3.598 1.302-7.011 3.863-10.143a20.443 20.443 0 0 1 3.763-3.57h4.977c.504.353 2.145 1.588 3.763 3.57 2.566 3.132 3.863 6.54 3.863 10.143.011 2.139-1.707 3.879-3.819 3.879z"/>
        </g>
    </g>
</svg>
