<?xml version="1.0" encoding="utf-8"?>
<!-- Generator: Adobe Illustrator 23.1.1, SVG Export Plug-In . SVG Version: 6.00 Build 0)  -->
<svg version="1.1" id="Layer_1" xmlns="http://www.w3.org/2000/svg" xmlns:xlink="http://www.w3.org/1999/xlink" x="0px" y="0px"
	 viewBox="0 0 56 56" style="enable-background:new 0 0 56 56;" xml:space="preserve">
<style type="text/css">
	.st0{fill:#707070;}
</style>
<g>
	<g>
		<path class="st0" d="M36,18l-16.2,0.2c-1,0-1.8,0.8-1.8,1.8l0.2,16.2c0,1,0.8,1.8,1.8,1.8l16.2-0.2c1,0,1.8-0.8,1.8-1.8l-0.2-16.2
			C37.8,18.8,37,18,36,18L36,18z M36.6,19.8l0.1,7.5l-8.2,0.1l-0.1-8.2l7.5-0.1C36.4,19.2,36.6,19.4,36.6,19.8z M19.8,19.4l7.5-0.1
			l0.1,8.2l-8.2,0.1L19.2,20C19.2,19.6,19.4,19.4,19.8,19.4z M19.4,36.2l-0.1-7.5l8.2-0.1l0.1,8.2L20,36.8
			C19.6,36.8,19.4,36.6,19.4,36.2z M36.2,36.6l-7.5,0.1l-0.1-8.2l8.2-0.1l0.1,7.5C36.8,36.4,36.6,36.6,36.2,36.6z"/>
		<path class="st0" d="M21,24l1.7,0l0,1.7c0,0.3,0.3,0.6,0.6,0.6c0.3,0,0.6-0.3,0.6-0.6c0,0,0,0,0,0l0-1.7l1.7,0
			c0.3,0,0.6-0.3,0.6-0.6c0-0.3-0.3-0.6-0.6-0.6c0,0,0,0,0,0l-1.7,0l0-1.7c0-0.3-0.3-0.6-0.6-0.6s-0.6,0.3-0.6,0.6c0,0,0,0,0,0
			l0,1.7l-1.7,0c-0.3,0-0.6,0.3-0.6,0.6C20.4,23.8,20.7,24,21,24C21,24,21,24,21,24z M30.3,23.9l4.6-0.1c0.3,0,0.6-0.3,0.6-0.6
			c0-0.3-0.3-0.6-0.6-0.6c0,0,0,0,0,0l-4.6,0.1c-0.3,0-0.6,0.3-0.6,0.6C29.7,23.7,30,23.9,30.3,23.9C30.3,23.9,30.3,23.9,30.3,23.9z
			 M25.7,32.1l-4.6,0.1c-0.3,0-0.6,0.3-0.6,0.6s0.3,0.6,0.6,0.6c0,0,0,0,0,0l4.6-0.1c0.3,0,0.6-0.3,0.6-0.6
			C26.3,32.3,26,32.1,25.7,32.1C25.7,32.1,25.7,32.1,25.7,32.1z M35.1,30.1c-0.2-0.2-0.6-0.2-0.8,0l-1.6,1.7L31,30.1
			c-0.2-0.2-0.6-0.2-0.8,0c-0.2,0.2-0.2,0.6,0,0.8l1.7,1.6l-1.6,1.7c-0.2,0.2-0.2,0.6,0,0.8c0.2,0.2,0.6,0.2,0.8,0l1.6-1.7l1.7,1.6
			c0.2,0.2,0.6,0.2,0.8,0c0.2-0.2,0.2-0.6,0-0.8l-1.7-1.6l1.6-1.7C35.4,30.7,35.4,30.3,35.1,30.1L35.1,30.1z M24,30.4
			c0,0.3-0.3,0.6-0.6,0.6c-0.3,0-0.6-0.3-0.6-0.6c0,0,0,0,0,0c0-0.3,0.3-0.6,0.6-0.6C23.7,29.8,24,30,24,30.4z M24,35
			c0,0.3-0.3,0.6-0.6,0.6c-0.3,0-0.6-0.3-0.6-0.6c0-0.3,0.3-0.6,0.6-0.6C23.8,34.4,24,34.7,24,35L24,35z"/>
	</g>
</g>
</svg>
