<?xml version="1.0" encoding="utf-8"?>
<!-- Generator: Adobe Illustrator 21.0.0, SVG Export Plug-In . SVG Version: 6.00 Build 0)  -->
<svg version="1.1" id="Layer_1" xmlns="http://www.w3.org/2000/svg" xmlns:xlink="http://www.w3.org/1999/xlink" x="0px" y="0px"
	 viewBox="0 0 100 48" style="enable-background:new 0 0 100 48;" xml:space="preserve">
<style type="text/css">
	.st0{fill:#008BB6;}
</style>
<g>
	<path class="st0" d="M58.6,32.2v-1.5c0,0-0.1-1.2-1.3-1.2h-2v2.7h-2v-7.6h4.9c0,0,2.5-0.3,2.5,2.2c0,1.3-1.1,1.8-1.1,1.8
		s1,0.4,1,1.7v1.9L58.6,32.2 M55.3,27.7h2.1c0.6,0,1.1-0.3,1.1-0.7c0-0.4-0.5-0.7-1.1-0.7h-2.1L55.3,27.7 M45.2,32.2h-1.8l-2.1-2.3
		l-2.1,2.3h-7.5v-7.7H39l2.3,2.4l2.3-2.4h1.5v0H50c0,0,2.5-0.3,2.5,2.2c0,2.3-0.8,3-3.4,3h-2v2.5H45.2 M42.6,28.4l2.5,2.7v-5.3
		L42.6,28.4 M33.7,30.5h4.2l2-2.1l-2-2.1h-4.2v1.2h4.1v1.7h-4.1V30.5 M47.1,27.7h2.1c0.6,0,1.1-0.3,1.1-0.7c0-0.4-0.5-0.7-1.1-0.7
		h-2.1V27.7 M72.3,32.2h-3.6v-1.8h3.1c0,0,1.1,0.1,1.1-0.6c0-0.7-1.7-0.6-1.7-0.6s-2.8,0.2-2.8-2.3c0-2.5,2.5-2.4,2.5-2.4h3.9v1.8
		h-3.1c0,0-1.1-0.2-1.1,0.5c0,0.6,1.5,0.5,1.5,0.5s3.1-0.2,3.1,2.1c0,2.5-2,2.7-2.7,2.7C72.4,32.2,72.3,32.2,72.3,32.2 M61.5,32.2
		v-7.6h6.3v1.8h-4.2v1.2h4.1v1.7h-4.1v1.3h4.2v1.7H61.5 M79.3,32.2h-3.6v-1.8h3.1c0,0,1.1,0.1,1.1-0.6c0-0.7-1.7-0.6-1.7-0.6
		s-2.8,0.2-2.8-2.3c0-2.5,2.5-2.4,2.5-2.4h3.8v1.8h-3.1c0,0-1.1-0.2-1.1,0.5c0,0.6,1.5,0.5,1.5,0.5s3.1-0.2,3.1,2.1
		c0,2.5-2,2.7-2.7,2.7C79.4,32.2,79.3,32.2,79.3,32.2"/>
	<g>
		<path class="st0" d="M51.3,24v-1.5c0,0-0.1-1.2-1.3-1.2h-2V24h-2v-7.6h4.9c0,0,2.5-0.3,2.5,2.2c0,1.3-1.1,1.8-1.1,1.8s1,0.4,1,1.7
			V24L51.3,24 M48,19.5h2.1c0.6,0,1.1-0.3,1.1-0.7c0-0.4-0.5-0.7-1.1-0.7H48L48,19.5 M75,24l-3.2-5.1V24h-3.9l-0.7-1.6h-3.7L62.8,24
			h-3.1c0,0-2.7-0.4-2.7-3.6c0-4.2,3.1-4.1,3.2-4.1l2.5,0.1V18l-2,0c0,0-1.3,0-1.5,1.7c0,0.2,0,0.4,0,0.5c0,2.6,2.3,1.8,2.4,1.8
			l2.5-5.7h2.8l3,6.9v-6.9h2.8l3.1,5v-5h2V24H75 M64.4,20.4h2l-1-2.3L64.4,20.4 M35.3,24v-5.3L32.7,24h-1.6l-2.5-5.3V24h-4l-0.7-1.6
			h-3.7L19.5,24h-2.2l3.3-7.6h2.8l3.1,7v-7h3.2l2.2,4.8l2.2-4.8h3.2V24L35.3,24 M21.1,20.5h2l-1-2.3L21.1,20.5 M38.7,24v-7.6H45v1.8
			h-4.2v1.2h4.1V21h-4.1v1.3H45V24L38.7,24 M54.3,24v-7.7h2V24H54.3"/>
	</g>
</g>
</svg>
